<svg id="Layer_2" data-name="Layer 2" xmlns="http://www.w3.org/2000/svg" viewBox="0 0 198.64 52"><path d="M41.14,10h4.17V38.88H59.14v3.5h-18Z"/><path d="M89.57,25.87c0,11.14-6.77,17-15,17C66,42.91,60,36.29,60,26.49c0-10.27,6.39-17,15-17C83.86,9.5,89.57,16.27,89.57,25.87Zm-25.1.53c0,6.91,3.74,13.1,10.32,13.1s10.37-6.09,10.37-13.44c0-6.43-3.36-13.15-10.33-13.15S64.47,19.29,64.47,26.4Z"/><path d="M119.62,40.94a29.92,29.92,0,0,1-9.94,1.78c-4.89,0-8.93-1.25-12.09-4.27-2.79-2.69-4.52-7-4.52-12.05.05-9.65,6.68-16.71,17.53-16.71a20,20,0,0,1,8.06,1.49l-1,3.41a16.75,16.75,0,0,0-7.15-1.39c-7.87,0-13,4.89-13,13s4.94,13,12.48,13a13.63,13.63,0,0,0,5.57-.86V28.75H109V25.39h10.66Z"/><path d="M153.65,25.87c0,11.14-6.77,17-15,17-8.55,0-14.55-6.62-14.55-16.42,0-10.27,6.39-17,15-17C147.94,9.5,153.65,16.27,153.65,25.87Zm-25.1.53c0,6.91,3.74,13.1,10.32,13.1s10.37-6.09,10.37-13.44c0-6.43-3.36-13.15-10.32-13.15S128.55,19.29,128.55,26.4Z"/></svg>