<?xml version="1.0" encoding="UTF-8"?><svg xmlns="http://www.w3.org/2000/svg" viewBox="0 0 52 52"><g id="a"><g><polyline points="9.28 26.34 21.59 5.9 31.1 26.34" style="fill:none; stroke:#231f20; stroke-width:.15px;"/><polyline points="21.12 26.34 42.72 26.34 36.35 14.97 25.84 14.97" style="fill:none; stroke:#231f20; stroke-width:.15px;"/><path d="M21.24,26.08c.01-.43,0-.87,.02-1.3,0-.24,0-.49,.03-.73,.14-.77,.29-1.54,.25-2.32-.02-.38,.06-.73,.19-1.08,.04-.1,.09-.14,.2-.15,.1,0,.19-.06,.28-.11,.02-.01,.03-.04,.03-.07,0-.04-.01-.08-.05-.09-.03-.01-.06-.02-.09-.01-.07,.02-.14,.06-.23,.11,.01-.05,.02-.07,.02-.09,.18-.43,.31-.87,.37-1.33,0-.06,.07-.12,.12-.16,.1-.1,.23-.18,.32-.29,.3-.39,.26-.83,.14-1.27,0-.02-.02-.04-.03-.07l-.05,.02-.4,1.19c-.02-.14-.02-.27-.03-.4,0-.17,.03-.32,.11-.48,.24-.49,.16-.96-.11-1.43-.4,.5-.46,.85-.19,1.41,.1,.2,.14,.4,.11,.62-.01,.11-.02,.23-.02,.34h-.04l-.34-1.19h-.05s-.03,.08-.04,.11c-.01,.17-.04,.35-.02,.52,.03,.36,.1,.71,.4,.97,.02,.02,.04,.06,.04,.08-.02,.17-.08,.54-.1,.69-.06-.22-.19-.24-.21-.22,0,.01-.01,.03-.02,.04,.17,.11,.03,.14,0-.02-.03,.06-.04,.1-.04,.17,0,.08,.05,.16,.06,.24,.01,.08,.02,.18,0,.26-.1,.29-.21,.58-.32,.86-.01,.03-.03,.06-.05,.08-.2-1.56-.56-3.1-.35-4.69,.5,.06,.72-.05,.78-.36l-.27,.11c.23-.25,.28-.62,.12-.86l-.36,.55h-.04c.02-.43-.06-.83-.23-1.24-.17,.42-.35,.82-.33,1.26l-.04,.02-.41-.46h-.03l.03,.55-.1-.04-.04,.03c.08,.13,.14,.27,.23,.38,.15,.19,.36,.08,.56,.08,0,.06,0,.11,0,.16-.01,.33-.03,.66-.04,.99,0,.74,.12,1.47,.22,2.2,.07,.55,.14,1.09,.21,1.64,.08,.72,0,1.43-.13,2.13-.01,.06-.03,.13-.03,.15-.12-.41-.24-.84-.36-1.27-.02-.08-.01-.13,.02-.21,.05-.09,.06-.2,.08-.3,0-.02-.03-.08-.06-.08-.03,0-.08,.01-.1,.04-.04,.05-.05,.1-.09,.18-.05-.11-.08-.2-.13-.28s-.05-.19,0-.28c.06-.15,.12-.31,.13-.46,.04-.44-.05-.87-.2-1.29-.01-.04-.05-.07-.07-.1h-.05v1.46h-.06c-.02-.06-.05-.13-.05-.2,.02-.24-.01-.48-.12-.7-.13-.26-.12-.45-.02-.66,.05-.11,.07-.25,.08-.38,.02-.3-.11-.55-.25-.8-.06-.1-.12-.2-.19-.3l-.06,.02c-.03,.36-.07,.71-.08,1.07,0,.23,.1,.42,.25,.59,.05,.05,.08,.12,.1,.2,.06,.27,.1,.55,.15,.82,0,.06,.02,.11,.03,.17-.05-.04-.08-.08-.1-.12-.14-.29-.27-.57-.41-.86-.02-.05-.06-.09-.09-.13h-.04c-.01,.06-.03,.11-.03,.16,0,.18,.01,.36,.02,.55,.02,.35,.18,.61,.46,.81,.12,.09,.25,.17,.36,.27,.05,.04,.1,.09,.12,.15,.13,.31,.26,.63,.39,.94,.01,.03,.02,.07,.02,.08-.09,.02-.19,.02-.24,.06-.06,.06,.03,.19,.14,.25,.04,.02,.08,.04,.12,.05,.09,.02,.13,.07,.13,.15,.02,.26,.06,.51,.06,.77,0,.55-.01,1.09-.02,1.64,0,.27,0,.54,0,.82h.11s0-.26,0-.32Zm1.55-8.73c.16,.37,.11,.98-.31,1.21l.13-.21h-.01l-.22,.17,.41-1.17Zm-.59-.03c-.22-.37-.14-.65,.13-1.17,.19,.27,.28,.89,.09,1.18l-.07-.35c-.06,.1,.04,.28-.14,.34Zm-.01,1.31l-.16-.23,.04,.17c-.17-.14-.32-.8-.19-1.08l.33,1.14h-.02Zm-.61-2.95c.08-.1,.14-.21,.21-.33,.06,.12,.04,.21-.03,.3-.06,.08-.13,.17-.19,.25l.04,.02,.17-.21c0,.19-.17,.35-.42,.38l.18-.22v-.02l-.18,.11-.02-.02c.08-.09,.18-.17,.25-.26Zm-.69,.45c-.09,0-.21,.03-.22-.14,0-.04-.04-.11-.08-.12-.15-.06-.12-.2-.16-.34l.45,.43-.15-.05h-.01l.2,.19-.03,.04Zm.13-.38l-.03,.09h-.04c-.1-.4,.11-.76,.18-1.14,0-.03,.02-.09,.03-.09,.01,0,.02,.05,.03,.1,.04,.23,.08,.47,.12,.7,.02,.13,.01,.14-.13,.32l-.07-.15-.02,.2-.07-.03Zm-1.01,3.42v.25l-.12-.13,.03,.16c-.23-.15-.18-.86-.05-1.31,.24,.38,.46,.73,.31,1.18,0-.02,0-.04,0-.06,0-.02,0-.03,0-.08l-.07,.14-.08-.14Zm.22,2.01l-.14-.11,.04,.11c-.35-.11-.58-.67-.47-1.23l.58,1.21v.02Zm.26,.09v-1.37c.19,.24,.24,1.04,.1,1.33v-.16l-.1,.2Z"/><path d="M19.86,18.12c.24,.38,.46,.73,.31,1.18,0-.02,0-.04,0-.06,0-.02,0-.03,0-.08l-.07,.14-.08-.14v.25l-.12-.13,.03,.16c-.23-.15-.18-.86-.05-1.31Z" style="fill:#fff;"/><path d="M22.41,17.32l-.07-.35c-.06,.1,.04,.28-.14,.34-.22-.37-.14-.65,.13-1.17,.19,.27,.28,.89,.09,1.18Z" style="fill:#fff;"/><path d="M19.67,19.93l.58,1.21v.02l-.15-.11,.04,.11c-.35-.11-.58-.67-.47-1.23Z" style="fill:#fff;"/><path d="M21.19,14.7c.04,.23,.11,.37,.16,.7,.03,.24,0,.35-.01,.39,0,.02-.02-.21-.04-.19s-.07,.06-.11,.11l-.07-.15-.02,.2-.07-.03-.03,.09h-.04c-.09-.4,.11-.75,.18-1.13h.05Z" style="fill:#fff;"/><path d="M22.79,17.34c.16,.37,.11,.98-.31,1.21l.13-.21h-.01l-.22,.17,.41-1.17Z" style="fill:#fff;"/><path d="M20.51,21.25v-1.37c.19,.24,.24,1.04,.1,1.33v-.16l-.1,.2Z" style="fill:#fff;"/><path d="M22.19,18.62l-.16-.23,.04,.17c-.17-.14-.32-.8-.19-1.08l.33,1.14h-.02Z" style="fill:#fff;"/><path d="M21.62,15.91c.06-.07,.11-.14,.17-.22,0,.19-.17,.35-.42,.38l.18-.22v-.02l-.18,.11-.02-.02c.08-.09,.18-.17,.25-.26,.08-.1,.14-.21,.21-.33,.06,.12,.04,.21-.03,.3-.06,.08-.13,.17-.19,.25l.04,.02Z" style="fill:#fff;"/><path d="M20.87,15.93l-.15-.05h-.01l.2,.19-.03,.04c-.09,0-.21,.03-.22-.14,0-.04-.04-.11-.08-.12-.15-.06-.12-.2-.16-.34l.45,.43Z" style="fill:#fff;"/><path d="M21.01,22.95s-.25-.05-.28-.2c.01-.02,.26,.02,.28,.2Z" style="fill:#fff;"/><path d="M20.84,22.07s-.01-.22,.1-.29c.02,0,.04,.23-.1,.29Z" style="fill:#fff;"/><path d="M21.9,19.38c-.08,.03-.05,.25,.07,.34,.08-.04,.08-.25-.07-.34Z" style="fill:#fff;"/><path d="M22.21,20.31s-.21,.2-.38,.13c0-.02,.2-.22,.38-.13Z" style="fill:#fff;"/><path d="M20.79,16.27s-.14-.21-.29-.18c0,.02,.12,.23,.29,.18Z" style="fill:#fff;"/><path d="M21.4,16.24s.2-.16,.33-.09c0,.02-.18,.18-.33,.09Z" style="fill:#fff;"/></g><g><path d="M8.19,34.36c-.18,.33-.45,.67-.78,1.01-.34,.34-.7,.65-1.1,.92-.39,.27-.82,.5-1.26,.67s-.86,.26-1.24,.26h-.07c-.34,0-.65-.08-.94-.27-.29-.18-.5-.43-.64-.74-.35-.72-.22-1.48,.38-2.28,.37-.5,.87-.96,1.51-1.37s1.27-.72,1.88-.92c.04-.01,.07-.04,.07-.09,0-.05-.02-.08-.06-.1-.52-.24-.86-.51-1-.82-.12-.25-.11-.51,.03-.75,.16-.29,.43-.5,.81-.62,.38-.12,.77-.15,1.18-.1,.4,.06,.75,.18,1.03,.38s.45,.43,.51,.7c.02,.07,0,.12-.05,.17-.05,.05-.11,.06-.17,.04-.06-.02-.1-.07-.12-.13-.04-.2-.18-.37-.41-.52-.23-.14-.51-.24-.84-.29-.34-.04-.67-.02-.98,.07s-.53,.25-.65,.47c-.09,.14-.1,.29-.03,.44,.06,.13,.17,.25,.33,.37,.17,.12,.35,.22,.55,.3,.2,.08,.39,.15,.56,.21,.17,.05,.32,.1,.46,.13,.04,0,.08,.03,.11,.07,.03,.04,.04,.08,.03,.13,0,.05-.03,.08-.07,.11s-.08,.04-.13,.03c-.22-.04-.51,0-.89,.11-.38,.11-.77,.26-1.18,.46s-.82,.46-1.22,.77c-.41,.31-.74,.64-.99,.98-.51,.69-.63,1.33-.34,1.92,.11,.25,.28,.45,.51,.6,.23,.15,.48,.22,.76,.21,.34,.01,.73-.06,1.15-.22,.42-.16,.82-.37,1.2-.63,.38-.26,.73-.55,1.05-.87,.32-.33,.57-.64,.74-.95,.27-.49,.32-.87,.14-1.14-.07-.1-.16-.16-.28-.2-.11-.04-.23-.04-.35,0-.25,.04-.52,.14-.81,.33-.3,.18-.57,.42-.82,.7-.25,.28-.41,.56-.49,.83-.06,.17-.07,.34-.02,.52,.05,.17,.14,.32,.27,.43,.05,.04,.07,.1,.06,.17-.01,.07-.05,.11-.12,.13-.06,.02-.12,.01-.17-.03-.19-.16-.32-.36-.38-.6-.07-.24-.06-.48,.03-.71,.09-.31,.26-.62,.52-.93,.26-.31,.56-.57,.9-.79,.34-.22,.67-.35,.99-.39,.18-.04,.36-.03,.54,.03s.32,.17,.43,.32c.25,.39,.21,.89-.13,1.5Z"/><path d="M14.08,34.84s.09,.02,.12,.06c.03,.04,.04,.08,.04,.12,0,.05-.02,.09-.06,.12-.04,.04-.09,.08-.16,.13-.06,.06-.18,.14-.35,.27-.17,.12-.34,.24-.51,.34-.17,.1-.37,.2-.61,.3-.23,.1-.46,.17-.67,.21-.22,.04-.44,.04-.68,0s-.46-.11-.65-.24c-.19-.12-.33-.27-.44-.46-.03-.05-.08-.08-.14-.08-.06,0-.11,.02-.15,.07-.15,.24-.32,.44-.5,.6s-.35,.25-.5,.25h0c-.08,0-.15-.03-.22-.08s-.12-.11-.15-.18c-.13-.33-.11-.65,.06-.96,.15-.3,.35-.56,.61-.78,.26-.21,.56-.36,.89-.44,.07-.02,.12,0,.17,.05,.05,.05,.06,.1,.04,.17-.02,.06-.06,.1-.13,.12-.28,.07-.53,.19-.75,.37-.22,.18-.39,.4-.52,.66-.12,.21-.15,.43-.07,.66,.03,.04,.05,.07,.06,.07,.07,.05,.22-.09,.44-.41,.22-.32,.41-.67,.58-1.04,.04-.08,.1-.11,.19-.1,.08,.01,.13,.06,.15,.15,0,.02,.01,.05,.02,.09,0,.04,.03,.11,.06,.21,.03,.1,.07,.19,.11,.28s.1,.18,.17,.28c.07,.1,.16,.18,.24,.23,.17,.11,.35,.18,.56,.2s.41,.01,.6-.03c.19-.04,.39-.11,.6-.21,.21-.09,.39-.19,.55-.29,.15-.1,.31-.2,.46-.31,.15-.11,.25-.19,.31-.23,.06-.05,.1-.08,.12-.11,.04-.03,.08-.04,.13-.04Z"/><path d="M18.52,34.62s.09,.02,.12,.05c.03,.03,.05,.07,.05,.12s-.02,.09-.05,.12c-.38,.38-.88,.71-1.49,1-.61,.28-1.18,.42-1.72,.42-.11,0-.22,0-.33-.02-.22-.02-.42-.08-.61-.2-.18-.12-.33-.27-.44-.46-.02-.04-.03-.08-.02-.12,.01-.04,.04-.08,.08-.11s.08-.03,.13-.02c.05,.01,.08,.04,.11,.08,.15,.19,.34,.32,.57,.37,.24,.05,.46,.02,.67-.1,.09-.05,.15-.13,.17-.23,.02-.1,0-.2-.08-.27-.08-.08-.16-.15-.25-.2-.19-.11-.34-.25-.46-.42-.02-.03-.04-.05-.08-.05-.04,0-.06,0-.09,.03l-.5,.48s-.11,.06-.17,.04c-.07-.02-.11-.06-.12-.12-.02-.07,0-.12,.06-.17l1.01-.95c.11-.14,.24-.26,.39-.36,.04-.03,.08-.04,.12-.03,.05,0,.08,.02,.12,.06,.03,.04,.04,.08,.04,.12,0,.05-.02,.08-.05,.12l-.36,.34c-.06,.07-.09,.14-.09,.23,0,.07,.03,.14,.1,.2,.07,.06,.17,.14,.29,.23,.14,.08,.25,.18,.35,.3,.07,.11,.12,.22,.13,.35,.01,.13-.01,.25-.08,.37-.02,.04-.01,.07,0,.1,.02,.03,.06,.04,.1,.03,.86-.21,1.62-.62,2.26-1.23,.03-.04,.07-.05,.12-.05Z"/><path d="M22.79,34.65s.09,.02,.13,.05c.04,.03,.05,.07,.05,.12s-.02,.09-.05,.13c-.05,.05-.11,.12-.19,.19-.08,.08-.23,.2-.45,.37s-.43,.32-.65,.46-.46,.25-.75,.36c-.28,.11-.55,.16-.8,.16-.18,0-.36-.03-.53-.1-.4-.15-.69-.48-.88-1-.19-.51-.26-1.17-.21-1.95,0-.04-.02-.06-.05-.09-.03-.02-.06-.03-.09-.03-.19,.01-.37,.03-.57,.04-.19,.02-.36,.03-.5,.04-.14,.01-.27,.02-.39,.03-.12,0-.21,.01-.27,.02-.06,0-.09,0-.1,0h-.01s-.09,0-.13-.04c-.04-.03-.05-.07-.05-.12s.02-.09,.05-.12,.07-.05,.12-.05c0,0,.04,0,.11,0,.07,0,.16-.01,.28-.02s.26-.02,.4-.03c.15-.01,.32-.02,.52-.04,.2-.02,.4-.03,.59-.04,.08,0,.13-.07,.15-.18,.04-.27,.09-.54,.16-.8,.06-.26,.14-.51,.22-.75s.18-.43,.29-.59c.11-.15,.22-.24,.33-.26,.18-.03,.31,.06,.42,.26,.07,.13,.06,.39-.02,.78-.08,.39-.21,.83-.38,1.32-.01,.04-.02,.06,0,.08,0,.02,.01,.03,.02,.04,0,0,.02,0,.03,0,1.01-.06,1.73-.09,2.18-.09,.05,0,.09,.02,.12,.05,.03,.04,.05,.08,.05,.12s-.02,.09-.05,.12c-.03,.04-.07,.05-.12,.05-.69,0-1.45,.03-2.3,.1-.04,0-.07,0-.08,.01-.02,0-.03,.03-.04,.06-.11,.32-.27,.76-.49,1.31,.11,.78,.39,1.25,.83,1.43,.13,.05,.27,.07,.42,.07s.3-.02,.44-.06c.14-.04,.29-.09,.45-.17s.3-.14,.43-.22c.13-.08,.27-.17,.4-.26,.13-.1,.25-.18,.34-.26s.19-.16,.27-.23c.09-.08,.15-.13,.18-.17,.03-.03,.06-.05,.07-.07,.03-.04,.07-.05,.12-.05Zm-4-.83s.09-.08,.15-.24c.06-.16,.08-.26,.05-.29-.06-.03-.12-.03-.17,.01-.02,.02-.04,.08-.05,.16-.01,.09-.01,.17,0,.24s.02,.12,.03,.12Zm.09-1.03c-.02,.1,0,.15,.05,.15,.04,0,.07,0,.11,0,.07,0,.11-.04,.12-.11,.4-1.17,.56-1.84,.48-2,0-.03-.03-.04-.05-.05s-.05,0-.07,.02c-.1,.11-.22,.35-.34,.73s-.22,.8-.29,1.27Z"/><path d="M30.48,35.22s-.06,.09-.11,.15c-.05,.07-.16,.18-.32,.33-.16,.15-.33,.29-.5,.41-.18,.12-.4,.23-.67,.33-.27,.1-.55,.15-.83,.15-.33,0-.64-.06-.94-.17-.75-.28-1.28-.7-1.59-1.28-.31-.58-.37-1.26-.19-2.06,.12-.53,.35-1.07,.68-1.63s.7-1.05,1.1-1.47c.41-.42,.84-.76,1.29-1.02,.45-.26,.86-.37,1.21-.33,.41,0,.75,.17,1.02,.48,.05,.07,.12,.12,.21,.15,.09,.03,.17,.04,.26,.02,.26-.07,.53-.1,.81-.11,.05,0,.09,.02,.12,.05,.04,.03,.05,.07,.05,.12s-.02,.09-.05,.12c-.04,.03-.07,.05-.12,.05-.32,0-.63,.06-.94,.15-.09,.03-.13,.09-.12,.18-.02,.36-.14,.73-.37,1.13-.22,.4-.49,.73-.81,1-.32,.27-.62,.41-.9,.42-.09,0-.18,0-.27-.05-.09-.04-.16-.1-.21-.18-.13-.22-.09-.52,.14-.92,.43-.7,1-1.24,1.73-1.62,.09-.05,.14-.12,.15-.23s-.02-.19-.1-.25c-.19-.12-.4-.19-.63-.2-.29-.03-.64,.08-1.05,.31s-.79,.54-1.17,.93c-.38,.38-.72,.84-1.04,1.37s-.53,1.06-.65,1.57c-.05,.22-.08,.42-.09,.63-.01,.2,0,.42,.06,.65s.13,.44,.24,.64c.11,.2,.29,.38,.51,.56,.23,.18,.51,.33,.83,.45,.24,.09,.48,.14,.72,.15,.24,0,.45-.01,.63-.06,.18-.05,.36-.12,.54-.21,.18-.09,.33-.19,.44-.28,.12-.09,.23-.19,.33-.3s.17-.19,.21-.23,.07-.08,.09-.12c.03-.04,.06-.06,.11-.07s.09,0,.13,.03c.04,.03,.06,.06,.07,.11s0,.09-.03,.13Zm-1.72-3.16c.27,0,.59-.2,.95-.58,.36-.38,.6-.79,.72-1.22,.02-.08,0-.15-.07-.2-.07-.05-.14-.05-.21,0-.59,.34-1.06,.81-1.42,1.39-.08,.14-.13,.26-.15,.37-.02,.11-.02,.18,0,.21,.03,.04,.08,.06,.17,.05Z"/><path d="M35.59,34.57s.09,.02,.12,.05,.05,.08,.05,.12-.02,.09-.05,.12c-.27,.27-.57,.49-.89,.66-.33,.17-.65,.29-.96,.36-.31,.07-.61,.1-.89,.1-.28,0-.53-.04-.75-.1-.03,0-.05,0-.07,.03-.06,.13-.14,.24-.26,.32-.12,.08-.25,.12-.39,.12-.15,0-.28-.04-.4-.11-.17-.08-.29-.2-.36-.37-.07-.17-.08-.34-.02-.51,.06-.23,.18-.44,.36-.63,.18-.19,.36-.28,.52-.28h0s.09,.02,.12,.05c.03,.04,.05,.08,.05,.12s-.02,.09-.05,.12c-.04,.03-.08,.05-.12,.05-.07,0-.17,.07-.3,.21-.13,.14-.21,.29-.26,.45-.04,.1-.03,.19,0,.29,.04,.09,.11,.16,.2,.2,.08,.06,.17,.09,.26,.08s.18-.05,.24-.13c.09-.1,.11-.17,.05-.2-.12-.08-.2-.19-.23-.34-.03-.15,0-.28,.07-.4,.17-.29,.34-.38,.51-.28,.08,.05,.14,.15,.17,.29,.03,.14,.02,.3,0,.46,0,.04,0,.08,.03,.12s.06,.06,.1,.07c.55,.09,1.1,.05,1.63-.12,.53-.17,1-.46,1.39-.85,.03-.04,.07-.05,.12-.05Zm-3.61,.8c.02-.11,.02-.21,.01-.32-.02,.03-.03,.06-.05,.07-.03,.04-.04,.08-.03,.13,0,.05,.03,.09,.07,.12Z"/><path d="M40.6,34.84s.09,.02,.12,.06c.03,.04,.04,.08,.04,.12,0,.05-.02,.09-.06,.12-.04,.04-.09,.08-.16,.13-.06,.06-.18,.14-.35,.27s-.34,.24-.51,.34c-.17,.1-.38,.2-.61,.3-.23,.1-.46,.17-.67,.21-.21,.04-.44,.04-.68,0-.24-.03-.46-.11-.65-.24-.19-.12-.33-.27-.44-.46-.03-.05-.08-.08-.14-.08-.06,0-.11,.02-.15,.07-.15,.24-.32,.44-.5,.6s-.35,.25-.5,.25h0c-.08,0-.15-.03-.22-.08s-.12-.11-.15-.18c-.13-.33-.11-.65,.06-.96,.15-.3,.35-.56,.61-.78,.26-.21,.56-.36,.89-.44,.07-.02,.12,0,.17,.05,.05,.05,.06,.1,.04,.17-.02,.06-.06,.1-.13,.12-.28,.07-.53,.19-.75,.37-.22,.18-.39,.4-.52,.66-.12,.21-.14,.43-.07,.66,.03,.04,.05,.07,.06,.07,.07,.05,.22-.09,.44-.41,.21-.32,.41-.67,.58-1.04,.04-.08,.1-.11,.19-.1,.08,.01,.13,.06,.14,.15,0,.02,.01,.05,.02,.09,0,.04,.03,.11,.06,.21,.03,.1,.07,.19,.11,.28,.04,.09,.1,.18,.17,.28,.07,.1,.16,.18,.24,.23,.17,.11,.35,.18,.56,.2s.41,.01,.6-.03,.39-.11,.6-.21,.39-.19,.55-.29,.3-.2,.46-.31c.15-.11,.25-.19,.31-.23,.05-.05,.1-.08,.12-.11,.04-.03,.08-.04,.12-.04Z"/><path d="M45.04,34.62s.09,.02,.12,.05c.03,.03,.05,.07,.05,.12s-.02,.09-.05,.12c-.38,.38-.88,.71-1.49,1-.61,.28-1.18,.42-1.72,.42-.11,0-.22,0-.33-.02-.22-.02-.42-.08-.61-.2-.19-.12-.33-.27-.44-.46-.02-.04-.03-.08-.02-.12s.04-.08,.08-.11c.04-.03,.08-.03,.13-.02,.05,.01,.08,.04,.11,.08,.15,.19,.33,.32,.57,.37,.24,.05,.46,.02,.67-.1,.09-.05,.15-.13,.17-.23,.02-.1,0-.2-.08-.27-.07-.08-.16-.15-.25-.2-.18-.11-.34-.25-.46-.42-.02-.03-.04-.05-.08-.05-.04,0-.06,0-.09,.03l-.5,.48s-.11,.06-.17,.04c-.07-.02-.11-.06-.12-.12s0-.12,.06-.17l1.01-.95c.12-.14,.25-.26,.39-.36,.04-.03,.08-.04,.12-.03,.05,0,.08,.02,.12,.06,.03,.04,.04,.08,.04,.12,0,.05-.02,.08-.05,.12l-.36,.34c-.06,.07-.09,.14-.09,.23,0,.07,.03,.14,.1,.2,.07,.06,.17,.14,.29,.23,.14,.08,.25,.18,.35,.3,.08,.11,.12,.22,.13,.35s-.01,.25-.08,.37c-.02,.04-.01,.07,.01,.1,.02,.03,.06,.04,.1,.03,.86-.21,1.62-.62,2.26-1.23,.03-.04,.07-.05,.12-.05Z"/><path d="M49.31,34.65s.09,.02,.13,.05c.04,.03,.05,.07,.05,.12s-.02,.09-.05,.13c-.05,.05-.11,.12-.2,.19-.08,.08-.23,.2-.45,.37s-.43,.32-.65,.46c-.21,.13-.46,.25-.75,.36-.28,.11-.55,.16-.8,.16-.18,0-.36-.03-.53-.1-.4-.15-.69-.48-.88-1-.19-.51-.26-1.17-.21-1.95,0-.04-.02-.06-.05-.09-.03-.02-.06-.03-.09-.03-.18,.01-.37,.03-.57,.04-.19,.02-.36,.03-.5,.04-.14,.01-.27,.02-.39,.03-.12,0-.21,.01-.27,.02-.06,0-.09,0-.1,0h-.01s-.09,0-.12-.04-.05-.07-.05-.12,.01-.09,.05-.12,.07-.05,.12-.05c0,0,.04,0,.11,0,.07,0,.16-.01,.28-.02s.25-.02,.4-.03c.15-.01,.32-.02,.53-.04,.2-.02,.4-.03,.59-.04,.08,0,.13-.07,.14-.18,.04-.27,.09-.54,.16-.8,.06-.26,.14-.51,.22-.75,.08-.24,.18-.43,.29-.59,.11-.15,.22-.24,.33-.26,.18-.03,.31,.06,.42,.26,.07,.13,.06,.39-.02,.78-.08,.39-.21,.83-.38,1.32-.01,.04-.02,.06,0,.08,0,.02,.01,.03,.02,.04,0,0,.02,0,.03,0,1.01-.06,1.73-.09,2.18-.09,.05,0,.09,.02,.12,.05s.05,.08,.05,.12-.02,.09-.05,.12-.07,.05-.12,.05c-.69,0-1.45,.03-2.3,.1-.04,0-.07,0-.08,.01-.02,0-.03,.03-.04,.06-.11,.32-.28,.76-.5,1.31,.11,.78,.39,1.25,.83,1.43,.13,.05,.27,.07,.42,.07s.3-.02,.44-.06c.14-.04,.29-.09,.45-.17s.3-.14,.43-.22c.13-.08,.26-.17,.4-.26,.13-.1,.25-.18,.34-.26s.18-.16,.27-.23,.15-.13,.18-.17c.03-.03,.06-.05,.07-.07,.03-.04,.07-.05,.12-.05Zm-4-.83s.09-.08,.15-.24,.08-.26,.05-.29c-.06-.03-.12-.03-.17,.01-.02,.02-.04,.08-.05,.16s-.01,.17,0,.24c0,.08,.02,.12,.03,.12Zm.09-1.03c-.02,.1,0,.15,.05,.15,.04,0,.07,0,.11,0,.07,0,.11-.04,.12-.11,.4-1.17,.56-1.84,.48-2,0-.03-.03-.04-.05-.05s-.05,0-.07,.02c-.1,.11-.21,.35-.34,.73s-.22,.8-.29,1.27Z"/></g><g><path d="M7.59,40c.55,0,.94,.33,.94,.8,0,.38-.25,.67-.62,.77l.78,1.16h-.34l-.76-1.12h-.37v1.12h-.29v-2.73h.65Zm.65,.8c0-.33-.26-.53-.65-.53h-.37v1.08h.37c.39,0,.65-.21,.65-.54Z"/><path d="M10.63,40v.26h-1.12v.92h.86v.26h-.86v1.02h1.14v.26h-1.43v-2.73h1.41Z"/><path d="M12.14,39.91l1.04,2.81h-.31l-.26-.72h-1.03l-.26,.72h-.3l1.04-2.81h.08Zm-.05,.65l-.42,1.18h.85l-.42-1.18Z"/><path d="M13.96,40v2.46h1.1v.26h-1.39v-2.73h.29Z"/><path d="M15,40.26v-.26h2.08v.26h-.9v2.46h-.29v-2.46h-.9Z"/><path d="M17.29,40h.32l.68,1.35,.69-1.35h.3l-.86,1.67v1.06h-.29v-1.06l-.83-1.67Z"/><path d="M21.15,40c.55,0,.94,.35,.94,.82s-.39,.82-.94,.82h-.37v1.08h-.29v-2.73h.65Zm.65,.82c0-.34-.26-.55-.65-.55h-.37v1.12h.37c.39,0,.65-.22,.65-.56Z"/><path d="M23.27,39.91l1.04,2.81h-.31l-.26-.72h-1.03l-.26,.72h-.3l1.04-2.81h.08Zm-.05,.65l-.42,1.18h.85l-.42-1.18Z"/><path d="M25.45,40c.55,0,.94,.33,.94,.8,0,.38-.25,.67-.62,.77l.78,1.16h-.34l-.76-1.12h-.37v1.12h-.29v-2.73h.65Zm.65,.8c0-.33-.26-.53-.65-.53h-.37v1.08h.37c.39,0,.65-.21,.65-.54Z"/><path d="M26.6,40.26v-.26h2.08v.26h-.9v2.46h-.29v-2.46h-.9Z"/><path d="M29.44,42.72h-.28v-2.81h.08l1.84,2.2v-2.12h.28v2.81h-.08l-1.84-2.2v2.12Z"/><path d="M33.51,40v.26h-1.12v.92h.86v.26h-.86v1.02h1.14v.26h-1.43v-2.73h1.41Z"/><path d="M34.79,40c.55,0,.94,.33,.94,.8,0,.38-.25,.67-.62,.77l.78,1.16h-.34l-.76-1.12h-.37v1.12h-.29v-2.73h.65Zm.65,.8c0-.33-.26-.53-.65-.53h-.37v1.08h.37c.39,0,.65-.21,.65-.54Z"/><path d="M36.18,42.25l.22-.18c.19,.29,.42,.43,.68,.43,.32,0,.53-.19,.53-.48,0-.25-.17-.42-.56-.58-.49-.19-.7-.44-.7-.79,0-.42,.3-.71,.74-.71,.31,0,.57,.14,.77,.42l-.22,.18c-.16-.23-.34-.33-.56-.33-.28,0-.45,.16-.45,.42s.15,.4,.54,.55c.49,.19,.72,.45,.72,.81,0,.45-.35,.76-.82,.76-.37,0-.69-.18-.9-.51Z"/><path d="M39.66,40v2.46h1.1v.26h-1.39v-2.73h.29Z"/><path d="M41.6,40v2.46h1.1v.26h-1.39v-2.73h.29Z"/><path d="M42.85,41.38c0-.8,.62-1.42,1.36-1.42,.41,0,.77,.18,1.03,.48l-.22,.18c-.21-.24-.49-.38-.82-.38-.6,0-1.05,.47-1.05,1.12s.45,1.13,1.07,1.13c.34,0,.62-.15,.81-.38l.2,.17c-.26,.3-.61,.48-1.04,.48-.77,0-1.35-.61-1.35-1.39Z"/></g></g><g id="b"/></svg>