<?xml version="1.0" encoding="UTF-8"?><svg id="a" xmlns="http://www.w3.org/2000/svg" viewBox="0 0 169.28 78.28"><rect x="110.97" y="2.48" width="22.51" height="53.82" style="fill:#221f1f;"/><path d="M85.76,4.81L8.21,72.35H163.82L85.76,4.81Zm-3.56,24.58c.34,0,.67,.03,1.01,.05v17.16h-16.35c-.07-.58-.11-1.16-.11-1.75,0-8.54,6.92-15.45,15.45-15.45Zm1.37,36.72h-16.83v-16.83h16.83v16.83Zm2.69-36.67c.33-.02,.67-.05,1.01-.05,8.54,0,15.45,6.92,15.45,15.45,0,.59-.04,1.18-.11,1.75h-16.35V29.44Zm16.46,36.67h-16.83v-16.83h16.83v16.83Z" style="fill:#221f1f;"/></svg>